<?xml version="1.0" encoding="UTF-8" standalone="no"?>
<svg
   xmlns:dc="http://purl.org/dc/elements/1.1/"
   xmlns:cc="http://creativecommons.org/ns#"
   xmlns:rdf="http://www.w3.org/1999/02/22-rdf-syntax-ns#"
   xmlns:svg="http://www.w3.org/2000/svg"
   xmlns="http://www.w3.org/2000/svg"
   viewBox="0 0 24 24"
   fill="black"
   width="24px"
   height="24px"
   version="1.1"
   id="svg26">
  <metadata
     id="metadata32">
    <rdf:RDF>
      <cc:Work
         rdf:about="">
        <dc:format>image/svg+xml</dc:format>
        <dc:type
           rdf:resource="http://purl.org/dc/dcmitype/StillImage" />
        <dc:title></dc:title>
      </cc:Work>
    </rdf:RDF>
  </metadata>
  <defs
     id="defs30" />
  <g
     id="layer3"
     style="display:none">
    <rect
       style="fill:#02ccee;fill-opacity:1"
       id="rect73"
       width="24"
       height="24"
       x="0"
       y="0" />
  </g>
  <path
     d="M0 0h24v24H0V0z"
     fill="none"
     id="path22" />
  <g
     id="layer1"
     style="display:inline">
    <path
       d="M 20,2 H 4 C 2.9,2 2,2.9 2,4 v 18 l 4,-4 h 14 c 1.1,0 2,-0.9 2,-2 V 4 C 22,2.9 21.1,2 20,2 Z m 0,14 H 6 L 4,18 V 4 h 16 z"
       id="path24" />
    <rect
       id="rect42"
       width="16"
       height="12"
       x="4"
       y="4"
       style="fill:#ffffff" />
    <path
       id="path54"
       style="fill:#ffffff"
       d="M 4,16 H 6 L 4,18 Z" />
  </g>
  <g
     id="layer2">
    <text
       xml:space="preserve"
       style="font-style:normal;font-weight:normal;font-size:11.8744px;line-height:0;font-family:sans-serif;letter-spacing:1.51102px;fill:#000000;fill-opacity:1;stroke:none;stroke-width:8.90583"
       x="4.1792307"
       y="14.229125"
       id="text36"><tspan
         id="tspan34"
         x="4.1792307"
         y="14.229125"
         style="font-style:normal;font-variant:normal;font-weight:normal;font-stretch:normal;font-size:11.8744px;font-family:'Noto Sans';-inkscape-font-specification:'Noto Sans';stroke-width:8.90583"
         rotate="0 0 0">XV</tspan></text>
    <text
       xml:space="preserve"
       style="font-style:normal;font-weight:normal;line-height:1.25;font-family:sans-serif;fill:#000000;fill-opacity:1;stroke:none"
       x="9.0432262"
       y="13.407496"
       id="text40"><tspan
         id="tspan38"
         x="9.0432262"
         y="13.407496">|</tspan></text>
  </g>
</svg>
